<?xml version="1.0" encoding="UTF-8"?> <svg xmlns="http://www.w3.org/2000/svg" width="6.2822in" height="0.7954in" viewBox="0 0 452.3214 57.2676"><path d="M3.1486,36.6648a14.6386,14.6386,0,0,0,14.5934,14.88H62.4426V42.5161H33.7872a8.1355,8.1355,0,0,1-8.136-8.136V21.3019a8.1356,8.1356,0,0,1,8.136-8.1363H62.4426V4.14H17.6042a14.6089,14.6089,0,0,0-13.036,8.33c-1.7283,3.6239-1.42,5.8162-1.42,9.127Z"></path><polygon points="320.859 13.198 320.859 4.152 262.332 4.152 262.332 13.198 279.785 13.198 279.785 51.546 302.653 51.546 302.653 13.198 320.859 13.198"></polygon><polygon points="244.622 33.528 223.28 4.152 198.434 4.152 198.434 51.546 211.524 51.546 211.524 22.169 232.867 51.546 257.713 51.546 257.713 4.152 244.622 4.152 244.622 33.528"></polygon><polygon points="179.236 33.944 157.591 4.144 132.594 4.144 132.594 51.539 145.835 51.539 145.835 22.17 167.178 51.539 192.176 51.539 192.176 4.144 179.236 4.144 179.236 33.944"></polygon><path d="M97.9069,13.18h28.5777V4.1525H81.9314A14.8769,14.8769,0,0,0,67.0546,19.029v17.64A14.8771,14.8771,0,0,0,81.9314,51.5461h44.5532V42.5186S97.9987,42.47,97.9069,42.47a8.1341,8.1341,0,0,1-8.134-8.1329h.03c-.01-.0326-.02-.0621-.03-.0947V31.9856h36.7117V23.713H89.7729V21.4561c.01-.05.0235-.0936.0334-.142h-.0334A8.1341,8.1341,0,0,1,97.9069,13.18Z"></path><path d="M370.7656,20.5581a4.5119,4.5119,0,0,1-4.5924,4.5433c-.0836,0-17.6754-.0351-17.6754-.0351V13.1979c4.3132,0,17.5963.01,17.6754.01a4.5526,4.5526,0,0,1,4.5924,4.5814v2.7692Zm13.3353.1788h0V17.6324c0-9.4314-7.1677-13.48-12.76-13.48H325.6284V51.5461h22.8694V33.1912h4.062l8.5623,18.3549h22.9788l-8.7828-18.8609A12.8519,12.8519,0,0,0,384.1009,20.7369Z"></path><path d="M414.0266,38.1071a7.307,7.307,0,0,1-.8462-2.3154c-.0025-.0116-.0944-.5184-.1193-.775-.0343-.3087-.0559-9.2063-.0559-13.4061a7.7975,7.7975,0,0,1,1.2643-4.4022,8.4384,8.4384,0,0,1,7.19-4.0224h5.288a8.4534,8.4534,0,0,1,8.4543,8.4535v12.437a8.4537,8.4537,0,0,1-8.4543,8.4532h-5.288a8.4507,8.4507,0,0,1-7.4327-4.4226ZM448.645,17.6593h0a14.5731,14.5731,0,0,0-14.5279-13.507H404.7907a14.5779,14.5779,0,0,0-14.5743,14.4232c-.0006.0082.0252,19.3334.04,19.366a14.5583,14.5583,0,0,0,14.5188,13.6043h29.3567A14.568,14.568,0,0,0,448.7,36.9786Z"></path></svg> 