<?xml version="1.0" encoding="utf-8"?>
<!-- Generator: Adobe Illustrator 23.0.0, SVG Export Plug-In . SVG Version: 6.00 Build 0)  -->
<svg version="1.1" id="Layer_1" xmlns="http://www.w3.org/2000/svg" xmlns:xlink="http://www.w3.org/1999/xlink" x="0px" y="0px"
	 viewBox="0 0 162 46" style="enable-background:new 0 0 162 46;" xml:space="preserve">
<style type="text/css">
	.st0{fill:#00AEEF;}
	.st1{fill:#000000;}
</style>
<g>
	<g>
		<path class="st0" d="M16.47,41.85L0.15,32.42V13.58l16.32-9.42l16.32,9.42v18.85L16.47,41.85z M2.01,31.35l14.46,8.35l14.46-8.35
			v-16.7L16.47,6.3L2.01,14.65V31.35z"/>
		<polygon class="st0" points="21.81,24.05 21.81,12.92 27.87,16.42 27.87,29.58 22.1,32.91 11.14,21.95 11.14,33.08 5.08,29.58 
			5.08,16.42 10.85,13.09 		"/>
	</g>
	<g>
		<g>
			<path class="st1" d="M156.99,16.85h-0.58v-2.74h-1.04v-0.53h2.66v0.53h-1.04V16.85z"/>
			<path class="st1" d="M160.25,16.04h-0.02l-1.02-1.53v2.34h-0.57v-3.27h0.61l1,1.55l1-1.55h0.61v3.27h-0.57V14.5L160.25,16.04z"/>
		</g>
		<g>
			<polygon class="st1" points="151.52,13.58 147.66,13.58 137.33,32.42 141.55,32.42 149.6,17.27 157.63,32.42 161.85,32.42 			"/>
			<polygon class="st1" points="136.84,28.7 122.42,28.7 122.42,13.58 118.74,13.58 118.74,32.42 134.8,32.42 			"/>
			<path class="st1" d="M55.97,32.42L42.68,18.53v13.89h-3.53V13.58h3.97l12.93,13.64V13.58h3.56v18.85H55.97z"/>
			<path class="st1" d="M63.57,32.42V13.58h3.67v18.85H63.57z"/>
			<path class="st1" d="M88.11,32.42l-7.42-7.4l-5.67,5.1v2.3h-3.73V13.58h3.73v11.89l13.1-11.89h5.34l-10.22,9.15l10.16,9.7H88.11z
				"/>
			<path class="st1" d="M99.96,32.42c-1.15,0-2.1-0.1-2.85-0.3c-0.75-0.2-1.35-0.54-1.81-1.01c-0.46-0.47-0.78-1.11-0.96-1.89
				c-0.18-0.78-0.27-1.75-0.27-2.9v-6.63c0-1.15,0.09-2.12,0.27-2.9c0.18-0.79,0.5-1.42,0.96-1.89c0.46-0.47,1.06-0.81,1.81-1.01
				c0.75-0.2,1.7-0.3,2.85-0.3h9.93c1.11,0,2.05,0.1,2.8,0.3c0.76,0.2,1.36,0.54,1.82,1.01c0.46,0.47,0.78,1.11,0.97,1.89
				c0.19,0.79,0.29,1.75,0.29,2.9v6.63c0,1.15-0.1,2.12-0.29,2.9c-0.19,0.79-0.52,1.42-0.97,1.89c-0.46,0.47-1.06,0.81-1.82,1.01
				c-0.76,0.2-1.69,0.3-2.8,0.3H99.96z M112.11,19.71c0-0.93-0.16-1.56-0.49-1.9c-0.33-0.34-0.9-0.51-1.73-0.51h-9.92
				c-0.82,0-1.4,0.17-1.73,0.51c-0.33,0.34-0.49,0.97-0.49,1.9v6.61c0,0.93,0.16,1.56,0.48,1.89c0.32,0.33,0.9,0.49,1.74,0.49h9.92
				c0.84,0,1.42-0.16,1.74-0.49c0.32-0.33,0.48-0.96,0.48-1.89V19.71z"/>
		</g>
	</g>
</g>
</svg>
