<?xml version="1.0" encoding="utf-8"?>
<!-- Generator: Adobe Illustrator 19.2.1, SVG Export Plug-In . SVG Version: 6.00 Build 0)  -->
<svg version="1.1" id="layer" xmlns="http://www.w3.org/2000/svg" xmlns:xlink="http://www.w3.org/1999/xlink" x="0px" y="0px"
	 viewBox="0 0 652 652" style="enable-background:new 0 0 652 652;" xml:space="preserve">
<style type="text/css">
	.st0{fill:#FFA422;}
</style>
<path class="st0" d="M21.3,263.4c0-3.7,0.7-7.4,2.1-10.8c4.1-9.9,13.8-16.4,24.6-16.3h142.8c3.7,0,7.4,0.7,10.8,2.2
	c3.2,1.4,6.1,3.3,8.6,5.8c2.4,2.4,4.4,5.3,5.7,8.5c1.4,3.2,2.1,6.7,2,10.2v53.7c0.1,7.2-2.8,14.2-8,19.2c-2.4,2.3-5.2,4.2-8.3,5.6
	c-3.2,1.4-6.6,2.1-10,2.1h-21.8l48.6,62.2h-43.1l-49.9-62.2H76.5v-34.4H182v-38.5H56.9v135H21.3V263.4z M439.3,263.4
	c0-3.7,0.7-7.4,2.1-10.8c1.3-3.2,3.2-6.1,5.7-8.5c2.4-2.4,5.3-4.4,8.5-5.7c3.3-1.4,6.8-2.1,10.4-2.1h155.4v34.4H475.1v31.2H602v34.4
	H475.1v35.1h146.2v34.4H467.2c-3.7,0-7.4-0.7-10.9-2.2c-3.3-1.4-6.3-3.4-8.8-5.8c-2.5-2.4-4.5-5.3-5.9-8.5
	c-1.5-3.2-2.2-6.7-2.2-10.2L439.3,263.4z M419,379.1c0,3.5-0.7,7-2.2,10.2c-1.4,3.2-3.4,6-5.9,8.5c-2.6,2.5-5.6,4.4-8.8,5.8
	c-3.4,1.5-7.2,2.2-10.9,2.2H237v-34.4h146.2v-35.1H256.4v-34.4h126.8v-31.2H237v-34.4h155.4c10.8-0.1,20.5,6.4,24.6,16.3
	c1.4,3.4,2.1,7.1,2,10.8V379.1z"/>
</svg>
